<mxfile host="app.diagrams.net" agent="Mozilla/5.0 (Windows NT 10.0; Win64; x64) AppleWebKit/537.36 (KHTML, like Gecko) Chrome/136.0.0.0 Safari/537.36" version="27.0.6">
  <diagram name="Page-1" id="Bkp5r6VrM8i4vGnkkPTx">
    <mxGraphModel grid="1" page="1" gridSize="10" guides="1" tooltips="1" connect="1" arrows="1" fold="1" pageScale="1" pageWidth="827" pageHeight="1169" math="0" shadow="0">
      <root>
        <mxCell id="0" />
        <mxCell id="1" parent="0" />
        <mxCell id="SKEvX-kX1AK4ZEtFTGuD-3" value="" style="sketch=0;outlineConnect=0;fontColor=#232F3E;gradientColor=none;fillColor=#7AA116;strokeColor=none;dashed=0;verticalLabelPosition=bottom;verticalAlign=top;align=center;html=1;fontSize=12;fontStyle=0;aspect=fixed;pointerEvents=1;shape=mxgraph.aws4.bucket;strokeWidth=2;" vertex="1" parent="1">
          <mxGeometry x="64.13" y="114.4" width="73.37" height="76.3" as="geometry" />
        </mxCell>
        <mxCell id="SKEvX-kX1AK4ZEtFTGuD-4" value="&lt;b&gt;S3 Stagging&lt;/b&gt;" style="text;html=1;align=center;verticalAlign=middle;whiteSpace=wrap;rounded=0;strokeWidth=2;" vertex="1" parent="1">
          <mxGeometry x="61.629999999999995" y="188.95" width="75.87" height="30" as="geometry" />
        </mxCell>
        <mxCell id="KFmFhAZbNiJQLVamwF7L-13" style="edgeStyle=orthogonalEdgeStyle;rounded=0;orthogonalLoop=1;jettySize=auto;html=1;flowAnimation=1;strokeWidth=2;" edge="1" parent="1" source="KFmFhAZbNiJQLVamwF7L-1" target="KFmFhAZbNiJQLVamwF7L-3">
          <mxGeometry relative="1" as="geometry" />
        </mxCell>
        <mxCell id="KFmFhAZbNiJQLVamwF7L-1" value="" style="sketch=0;outlineConnect=0;fontColor=#232F3E;gradientColor=none;fillColor=#7AA116;strokeColor=none;dashed=0;verticalLabelPosition=bottom;verticalAlign=top;align=center;html=1;fontSize=12;fontStyle=0;aspect=fixed;pointerEvents=1;shape=mxgraph.aws4.bucket;strokeWidth=2;" vertex="1" parent="1">
          <mxGeometry x="300" y="116.15" width="70" height="72.8" as="geometry" />
        </mxCell>
        <mxCell id="KFmFhAZbNiJQLVamwF7L-12" style="edgeStyle=orthogonalEdgeStyle;rounded=0;orthogonalLoop=1;jettySize=auto;html=1;flowAnimation=1;strokeWidth=2;" edge="1" parent="1" target="KFmFhAZbNiJQLVamwF7L-1">
          <mxGeometry relative="1" as="geometry">
            <mxPoint x="258" y="152.70000000000005" as="sourcePoint" />
          </mxGeometry>
        </mxCell>
        <mxCell id="KFmFhAZbNiJQLVamwF7L-3" value="" style="sketch=0;outlineConnect=0;fontColor=#232F3E;gradientColor=none;fillColor=#8C4FFF;strokeColor=none;dashed=0;verticalLabelPosition=bottom;verticalAlign=top;align=center;html=1;fontSize=12;fontStyle=0;aspect=fixed;pointerEvents=1;shape=mxgraph.aws4.glue_crawlers;strokeWidth=2;" vertex="1" parent="1">
          <mxGeometry x="414" y="112.7" width="80" height="80" as="geometry" />
        </mxCell>
        <mxCell id="KFmFhAZbNiJQLVamwF7L-9" style="edgeStyle=orthogonalEdgeStyle;rounded=0;orthogonalLoop=1;jettySize=auto;html=1;exitX=1;exitY=0.5;exitDx=0;exitDy=0;exitPerimeter=0;fontStyle=1;flowAnimation=1;strokeWidth=2;" edge="1" parent="1" source="KFmFhAZbNiJQLVamwF7L-5">
          <mxGeometry relative="1" as="geometry">
            <mxPoint x="670" y="152.70000000000005" as="targetPoint" />
          </mxGeometry>
        </mxCell>
        <mxCell id="KFmFhAZbNiJQLVamwF7L-10" style="edgeStyle=orthogonalEdgeStyle;rounded=0;orthogonalLoop=1;jettySize=auto;html=1;entryX=0;entryY=0.5;entryDx=0;entryDy=0;entryPerimeter=0;flowAnimation=1;strokeWidth=2;" edge="1" parent="1" source="KFmFhAZbNiJQLVamwF7L-3" target="KFmFhAZbNiJQLVamwF7L-5">
          <mxGeometry relative="1" as="geometry" />
        </mxCell>
        <mxCell id="KFmFhAZbNiJQLVamwF7L-11" style="edgeStyle=orthogonalEdgeStyle;rounded=0;orthogonalLoop=1;jettySize=auto;html=1;entryX=0;entryY=0.5;entryDx=0;entryDy=0;entryPerimeter=0;flowAnimation=1;strokeWidth=2;" edge="1" parent="1" source="SKEvX-kX1AK4ZEtFTGuD-3">
          <mxGeometry relative="1" as="geometry">
            <mxPoint x="180" y="152.70000000000005" as="targetPoint" />
          </mxGeometry>
        </mxCell>
        <mxCell id="KFmFhAZbNiJQLVamwF7L-14" value="&lt;b&gt;S3 DWH&lt;/b&gt;" style="text;html=1;align=center;verticalAlign=middle;whiteSpace=wrap;rounded=0;strokeWidth=2;" vertex="1" parent="1">
          <mxGeometry x="305" y="188.95" width="60" height="30" as="geometry" />
        </mxCell>
        <mxCell id="KFmFhAZbNiJQLVamwF7L-16" value="&lt;b&gt;Crawler&lt;/b&gt;" style="text;html=1;align=center;verticalAlign=middle;whiteSpace=wrap;rounded=0;strokeWidth=2;" vertex="1" parent="1">
          <mxGeometry x="424" y="188.95" width="60" height="30" as="geometry" />
        </mxCell>
        <mxCell id="KFmFhAZbNiJQLVamwF7L-19" value="" style="sketch=0;points=[[0,0,0],[0.25,0,0],[0.5,0,0],[0.75,0,0],[1,0,0],[0,1,0],[0.25,1,0],[0.5,1,0],[0.75,1,0],[1,1,0],[0,0.25,0],[0,0.5,0],[0,0.75,0],[1,0.25,0],[1,0.5,0],[1,0.75,0]];outlineConnect=0;fontColor=#232F3E;fillColor=#8C4FFF;strokeColor=#ffffff;dashed=0;verticalLabelPosition=bottom;verticalAlign=top;align=center;html=1;fontSize=12;fontStyle=0;aspect=fixed;shape=mxgraph.aws4.resourceIcon;resIcon=mxgraph.aws4.glue;strokeWidth=2;" vertex="1" parent="1">
          <mxGeometry x="180" y="112.7" width="78" height="78" as="geometry" />
        </mxCell>
        <mxCell id="KFmFhAZbNiJQLVamwF7L-22" value="&lt;b&gt;AWS GLUE&lt;/b&gt;" style="text;html=1;align=center;verticalAlign=middle;whiteSpace=wrap;rounded=0;strokeWidth=2;" vertex="1" parent="1">
          <mxGeometry x="184.5" y="188.95" width="69" height="30" as="geometry" />
        </mxCell>
        <mxCell id="KFmFhAZbNiJQLVamwF7L-24" value="AWS Cloud" style="points=[[0,0],[0.25,0],[0.5,0],[0.75,0],[1,0],[1,0.25],[1,0.5],[1,0.75],[1,1],[0.75,1],[0.5,1],[0.25,1],[0,1],[0,0.75],[0,0.5],[0,0.25]];outlineConnect=0;gradientColor=none;html=1;whiteSpace=wrap;fontSize=12;fontStyle=0;container=1;pointerEvents=0;collapsible=0;recursiveResize=0;shape=mxgraph.aws4.group;grIcon=mxgraph.aws4.group_aws_cloud_alt;strokeColor=#232F3E;fillColor=none;verticalAlign=top;align=left;spacingLeft=30;fontColor=#232F3E;dashed=0;strokeWidth=2;" vertex="1" parent="1">
          <mxGeometry x="50" y="80" width="700" height="170" as="geometry" />
        </mxCell>
        <mxCell id="KFmFhAZbNiJQLVamwF7L-5" value="" style="sketch=0;points=[[0,0,0],[0.25,0,0],[0.5,0,0],[0.75,0,0],[1,0,0],[0,1,0],[0.25,1,0],[0.5,1,0],[0.75,1,0],[1,1,0],[0,0.25,0],[0,0.5,0],[0,0.75,0],[1,0.25,0],[1,0.5,0],[1,0.75,0]];outlineConnect=0;fontColor=#232F3E;fillColor=#8C4FFF;strokeColor=#ffffff;dashed=0;verticalLabelPosition=bottom;verticalAlign=top;align=center;html=1;fontSize=12;fontStyle=0;aspect=fixed;shape=mxgraph.aws4.resourceIcon;resIcon=mxgraph.aws4.athena;strokeWidth=2;" vertex="1" parent="KFmFhAZbNiJQLVamwF7L-24">
          <mxGeometry x="491" y="33.7" width="78" height="78" as="geometry" />
        </mxCell>
        <mxCell id="KFmFhAZbNiJQLVamwF7L-20" value="" style="outlineConnect=0;dashed=0;verticalLabelPosition=bottom;verticalAlign=top;align=center;html=1;shape=mxgraph.aws3.quicksight;fillColor=#00B7F4;gradientColor=none;strokeWidth=2;" vertex="1" parent="KFmFhAZbNiJQLVamwF7L-24">
          <mxGeometry x="615" y="33.35000000000001" width="70" height="75.6" as="geometry" />
        </mxCell>
        <mxCell id="KFmFhAZbNiJQLVamwF7L-18" value="&lt;b&gt;Athena&lt;/b&gt;" style="text;html=1;align=center;verticalAlign=middle;whiteSpace=wrap;rounded=0;strokeWidth=2;" vertex="1" parent="KFmFhAZbNiJQLVamwF7L-24">
          <mxGeometry x="500" y="108.94999999999999" width="60" height="30" as="geometry" />
        </mxCell>
        <mxCell id="KFmFhAZbNiJQLVamwF7L-21" value="&lt;b&gt;QuickSight&lt;/b&gt;" style="text;html=1;align=center;verticalAlign=middle;whiteSpace=wrap;rounded=0;strokeWidth=2;" vertex="1" parent="KFmFhAZbNiJQLVamwF7L-24">
          <mxGeometry x="620" y="111.69999999999999" width="60" height="30" as="geometry" />
        </mxCell>
      </root>
    </mxGraphModel>
  </diagram>
</mxfile>
